<svg xmlns="http://www.w3.org/2000/svg" viewBox="0 0 1200 700"><defs><linearGradient id="metal" x2="0" y2="1"><stop stop-color="#59444a"/><stop offset=".55" stop-color="#272a34"/><stop offset="1" stop-color="#0b1016"/></linearGradient><radialGradient id="reactor"><stop stop-color="#ffb36a" stop-opacity=".8"/><stop offset=".25" stop-color="#e75b49" stop-opacity=".38"/><stop offset="1" stop-color="#e75b49" stop-opacity="0"/></radialGradient></defs><rect width="1200" height="700" fill="url(#metal)"/><circle cx="650" cy="330" r="320" fill="url(#reactor)"/><g fill="#141820" stroke="#85818a" stroke-opacity=".22" stroke-width="3"><path d="M0 0h200v700H0zM245 0h24v700h-24zM970 0h230v700H970zM1010 0h16v700h-16z"/><path d="M0 120h1200v18H0zM0 520h1200v24H0zM0 620h1200v12H0z"/></g><g fill="none" stroke="#e3a078" stroke-opacity=".35" stroke-width="4"><path d="M80 180h150v180H80zM920 170h170v230H920zM280 570h610"/><circle cx="650" cy="330" r="105"/><circle cx="650" cy="330" r="78"/><circle cx="650" cy="330" r="48"/></g><g fill="#f5b27e" opacity=".65"><circle cx="80" cy="145" r="5"/><circle cx="1120" cy="145" r="5"/><circle cx="80" cy="575" r="5"/><circle cx="1120" cy="575" r="5"/></g><path d="M0 670 1200 610v90H0Z" fill="#080c12" opacity=".75"/></svg>